#!OML:ASF H:\Terrain\Patient Classification 1\Walking\liu\liu.ASF
:FULLY-SPECIFIED
:DEGREES
178
root 16.228121 33.442402 -24.508200 15.754360 13.262380 -3.611120
lowerback -9.140280 0.923616 0.231594
upperback -0.708128 1.067954 6.921080
thorax 4.334600 0.509780 7.073660
lowerneck -41.439201 -16.453119 -30.111200
upperneck 29.230600 -19.889500 30.896601
head 19.251221 -7.930400 12.817100
rclavicle 0.000000 0.000000
rhumerus -76.373398 22.983400 -157.962402
rradius 82.721001
rwrist -42.333199
rhand -60.625198 -50.837200
rfingers 14.250040
rthumb -7.238760 -110.735199
lclavicle 0.000000 0.000000
lhumerus -90.014000 -25.702999 192.813202
lradius 65.226196
lwrist 34.996399
lhand -25.275801 -51.264198
lfingers 14.250040
lthumb 26.884399 7.828400
rfemur -40.919201 5.740720 52.765800
rtibia 55.296799
rfoot -34.842201 3.841020
rtoes -33.987801
lfemur -52.536598 16.393641 -36.283600
ltibia 125.149597
lfoot -19.847820 21.023001
ltoes -14.777500
179
root 16.219061 33.426201 -24.271799 15.708560 12.911680 -4.117520
lowerback -9.137160 0.805838 0.612808
upperback -0.875156 0.895514 6.968520
thorax 4.173860 0.429324 6.894760
lowerneck -40.356201 -15.684760 -29.539400
upperneck 28.860800 -19.091600 30.891001
head 18.766121 -7.578300 12.859280
rclavicle -0.000000 -0.000000
rhumerus -75.223396 22.918600 -158.112000
rradius 82.981003
rwrist -41.979801
rhand -60.694599 -50.659000
rfingers 14.250040
rthumb -7.305660 -110.556000
lclavicle -0.000000 -0.000000
lhumerus -90.672798 -23.506399 191.621399
lradius 65.549599
lwrist 34.161598
lhand -25.319599 -50.729599
lfingers 14.250040
lthumb 26.842400 8.365760
rfemur -40.132198 6.289280 53.475800
rtibia 55.480598
rfoot -35.353001 3.824100
rtoes -32.241798
lfemur -55.114601 16.336399 -36.261600
ltibia 124.762604
lfoot -21.896999 21.320999
ltoes -14.014740
180
root 16.209681 33.398201 -24.030800 15.577980 12.730240 -4.393020
lowerback -9.065220 0.170596 0.481014
upperback -1.126350 0.065422 6.863400
thorax 3.922600 0.016976 6.805860
lowerneck -39.513599 -14.243040 -27.045401
upperneck 29.082800 -17.695921 29.733200
head 18.270281 -6.930480 12.257240
rclavicle 0.000000 0.000000
rhumerus -74.472801 23.757601 -159.163406
rradius 83.516403
rwrist -41.547798
rhand -60.813801 -49.752602
rfingers 14.250040
rthumb -7.420780 -109.647400
lclavicle 0.000000 0.000000
lhumerus -91.530403 -20.810200 189.666595
lradius 65.906403
lwrist 34.637402
lhand -24.533001 -49.643200
lfingers 14.250040
lthumb 27.600201 9.401300
rfemur -39.256199 6.941680 54.005001
rtibia 55.634800
rfoot -36.312000 3.164100
rtoes -31.346800
lfemur -57.510601 16.022720 -36.427399
ltibia 124.097000
lfoot -23.871599 21.300400
ltoes -6.873140
181
root 16.212740 33.383400 -23.776600 15.404540 12.313300 -4.315820
lowerback -9.432960 1.625302 0.961996
upperback -0.543914 1.955168 6.882580
thorax 4.626880 0.957038 6.685000
lowerneck -39.515800 -15.947420 -30.258400
upperneck 28.590000 -19.388140 31.142401
head 18.627119 -7.771460 13.025720
rclavicle -0.000000 -0.000000
rhumerus -73.319603 20.241600 -156.268799
rradius 84.426399
rwrist -41.691200
rhand -60.681198 -48.538799
rfingers 14.250040
rthumb -7.292780 -108.435799
lclavicle -0.000000 -0.000000
lhumerus -90.303596 -22.945601 191.298401
lradius 65.637199
lwrist 34.911800
lhand -26.579201 -49.123600
lfingers 14.250040
lthumb 25.628201 10.049760
rfemur -38.166599 7.377600 54.078999
rtibia 55.858200
rfoot -37.050999 3.003860
rtoes -29.499001
lfemur -59.437401 15.676500 -37.060001
ltibia 123.020203
lfoot -25.363199 21.893801
ltoes -8.015520
182
root 16.210640 33.378201 -23.532200 15.565520 11.839800 -4.443380
lowerback -8.417000 1.991576 1.348908
upperback -4.284560 2.582300 6.768460
thorax 0.189322 1.322930 6.309200
lowerneck -27.071600 -14.187900 -32.370201
upperneck 26.257601 -18.230261 32.604401
head 15.613140 -7.779580 14.214400
rclavicle -0.000000 0.000000
rhumerus -81.446602 20.829599 -156.995407
rradius 87.335999
rwrist -42.433601
rhand -60.993801 -49.814400
rfingers 14.250040
rthumb -7.594640 -109.706200
lclavicle -0.000000 0.000000
lhumerus -98.592598 -22.076000 192.626801
lradius 66.580803
lwrist 33.684399
lhand -29.617201 -50.400799
lfingers 14.250040
lthumb 22.698799 8.944900
rfemur -37.546398 7.975220 54.349201
rtibia 56.228600
rfoot -37.851200 2.790400
rtoes -28.292801
lfemur -61.756199 15.634060 -37.478401
ltibia 121.665001
lfoot -25.344400 22.960600
ltoes -15.867020
